<?xml version="1.0" encoding="UTF-8"?>
<svg version="1.1" xmlns="http://www.w3.org/2000/svg" width="100" height="80">
<path d="M0 0 C1.6791473 8.49660837 2.90380432 17.51043021 -1.99658203 25.08691406 C-4.6071732 28.18708523 -7.30409514 31.03563195 -10.25 33.8125 C-10.73520111 34.27151703 -11.22040222 34.73053406 -11.7203064 35.20346069 C-20.84411536 43.68720336 -20.84411536 43.68720336 -25 44 C-28.37261624 41.32535897 -31.05672959 38.15968735 -34 35 C-34.33 42.59 -34.66 50.18 -35 58 C-39.62 58 -44.24 58 -49 58 C-49.19270869 51.13180142 -49.37136145 44.26343345 -49.53710938 37.39453125 C-49.59543735 35.05882005 -49.65757679 32.72320074 -49.72363281 30.38769531 C-49.81802215 27.02686293 -49.89861131 23.66593642 -49.9765625 20.3046875 C-50.00875885 19.26384003 -50.0409552 18.22299255 -50.0741272 17.15060425 C-50.18003353 12.00243559 -50.1028941 7.8158428 -48 3 C-47.34 3 -46.68 3 -46 3 C-45.67 3.66 -45.34 4.32 -45 5 C-44.0925 5.4125 -43.185 5.825 -42.25 6.25 C-39.08504697 7.95420548 -37.52206869 9.55912201 -35.36328125 12.37890625 C-33.32331151 14.80465823 -30.91120563 16.71528588 -28.453125 18.703125 C-27 20 -27 20 -26 22 C-21.4559632 21.14921199 -19.10711159 18.48016552 -16 15.25 C-15.21882813 14.46109375 -15.21882813 14.46109375 -14.421875 13.65625 C-11.40479517 10.57821906 -8.68496247 7.37521426 -6 4 C-1.35135135 0 -1.35135135 0 0 0 Z " fill="#F6F6F6" transform="translate(50,0)"/>
<path d="M0 0 C4.62 0 9.24 0 14 0 C14 18.81 14 37.62 14 57 C6.125 50.25 6.125 50.25 2.81640625 46.9140625 C1.76743164 45.86025391 1.76743164 45.86025391 0.69726562 44.78515625 C-0.00720703 44.07230469 -0.71167969 43.35945313 -1.4375 42.625 C-2.53481445 41.52091797 -2.53481445 41.52091797 -3.65429688 40.39453125 C-5.43852723 38.59863926 -7.22036124 36.80044015 -9 35 C-12.66480274 36.53407909 -14.94130908 38.73685076 -17.6953125 41.5703125 C-19.01595703 42.91416016 -19.01595703 42.91416016 -20.36328125 44.28515625 C-21.27464844 45.22230469 -22.18601562 46.15945312 -23.125 47.125 C-24.93548757 48.98627264 -26.75036163 50.84329201 -28.5703125 52.6953125 C-29.37227051 53.52047363 -30.17422852 54.34563477 -31.00048828 55.19580078 C-33 57 -33 57 -35 57 C-36.52379013 49.86689547 -37.42738141 43.01993047 -35 36 C-28.81808025 27.0941844 -20.24640864 19.94479581 -12 13 C-8 15 -8 15 -1 22 C-0.67 14.74 -0.34 7.48 0 0 Z " fill="#EF9623" transform="translate(84,0)"/>
<path d="M0 0 C2.4375 0.125 2.4375 0.125 5 1 C6.3125 3.5625 6.3125 3.5625 7 6 C7.66 5.01 8.32 4.02 9 3 C9.66 2.01 10.32 1.02 11 0 C12.65 0.33 14.3 0.66 16 1 C16 6.28 16 11.56 16 17 C14.68 17 13.36 17 12 17 C11.67 15.02 11.34 13.04 11 11 C10.34 12.98 9.68 14.96 9 17 C7.0625 16.6875 7.0625 16.6875 5 16 C4.67 15.01 4.34 14.02 4 13 C3.34 14.32 2.68 15.64 2 17 C0.68 17 -0.64 17 -2 17 C-1.85978195 14.35375716 -1.71310224 11.70815422 -1.5625 9.0625 C-1.52318359 8.30775391 -1.48386719 7.55300781 -1.44335938 6.77539062 C-1.11328125 1.11328125 -1.11328125 1.11328125 0 0 Z " fill="#F6F9F8" transform="translate(3,62)"/>
<path d="M0 0 C0.99 0 1.98 0 3 0 C3.66 2.31 4.32 4.62 5 7 C5.99 4.69 6.98 2.38 8 0 C9.32 0.33 10.64 0.66 12 1 C12.33 2.65 12.66 4.3 13 6 C13.99 4.02 14.98 2.04 16 0 C16.99 0 17.98 0 19 0 C18.58411954 6.19518473 17.39748106 11.26689311 15 17 C13.68 17 12.36 17 11 17 C10.34 14.69 9.68 12.38 9 10 C8.34 12.31 7.68 14.62 7 17 C5.35 16.67 3.7 16.34 2 16 C1.46748234 14.08654673 0.94940517 12.1690705 0.4375 10.25 C0.14746094 9.18265625 -0.14257812 8.1153125 -0.44140625 7.015625 C-0.97098494 4.15664073 -0.98370862 2.68402617 0 0 Z " fill="#FCFEFD" transform="translate(36,62)"/>
<path d="M0 0 C0.33 0.99 0.66 1.98 1 3 C0.319375 3.5775 -0.36125 4.155 -1.0625 4.75 C-2.0215625 5.86375 -2.0215625 5.86375 -3 7 C-2.86358623 9.21858253 -2.86358623 9.21858253 -2 11 C-1.34 11 -0.68 11 0 11 C0.66 12.98 1.32 14.96 2 17 C2.33 16.34 2.66 15.68 3 15 C3.99 15.33 4.98 15.66 6 16 C-2.57414449 26.24714829 -2.57414449 26.24714829 -7 30 C-7.66 30 -8.32 30 -9 30 C-10.47956693 11.50920708 -10.47956693 11.50920708 -6.99609375 5.6015625 C-4.76852907 3.44720417 -2.62495519 1.64059699 0 0 Z " fill="#F09621" transform="translate(58,27)"/>
<path d="M0 0 C2.30008603 1.58626623 2.88657611 2.67717815 3.8125 5.3125 C4.04876808 8.69900913 3.37355402 10.90950345 2 14 C-1.51253146 16.34168764 -2.86469356 16.49623677 -7 16 C-9.875 14.5 -9.875 14.5 -12 12 C-12.84091359 8.12862424 -12.56444811 5.04826077 -10.6875 1.5625 C-7.25345983 -1.61716683 -4.27314242 -1.0682856 0 0 Z M-6 3 C-8.36692966 5.84826598 -8.36692966 5.84826598 -7.625 9.1875 C-7.41875 10.115625 -7.2125 11.04375 -7 12 C-6.01 12.33 -5.02 12.66 -4 13 C-3.01 12.34 -2.02 11.68 -1 11 C-0.74339906 7.92078868 -0.60568496 5.78863007 -2 3 C-3.32 3 -4.64 3 -6 3 Z " fill="#FCFDFD" transform="translate(68,63)"/>
<path d="M0 0 C2.375 1.5 2.375 1.5 4 3 C3.814375 4.010625 3.62875 5.02125 3.4375 6.0625 C3.00231753 9.97914227 3.29146979 13.14244663 4 17 C2.68 17 1.36 17 0 17 C-0.33 15.02 -0.66 13.04 -1 11 C-1.99 11 -2.98 11 -4 11 C-4 12.98 -4 14.96 -4 17 C-5.32 17 -6.64 17 -8 17 C-8 11.72 -8 6.44 -8 1 C-5.19084526 -0.40457737 -3.11189466 -0.24895157 0 0 Z M-4 4 C-4 4.99 -4 5.98 -4 7 C-2.68 7 -1.36 7 0 7 C0 6.01 0 5.02 0 4 C-1.32 4 -2.64 4 -4 4 Z " fill="#FCFDFD" transform="translate(81,62)"/>
<path d="M0 0 C2 0.25 2 0.25 4 1 C4.33 1.99 4.66 2.98 5 4 C5.66 4 6.32 4 7 4 C7.66 2.68 8.32 1.36 9 0 C10.32 0.33 11.64 0.66 13 1 C12.484375 1.886875 11.96875 2.77375 11.4375 3.6875 C9.45291202 8.26068101 10.36210188 10.31144614 12.0625 14.8125 C12.371875 15.534375 12.68125 16.25625 13 17 C11.35 17 9.7 17 8 17 C7.67 15.68 7.34 14.36 7 13 C6.34 13 5.68 13 5 13 C4.67 14.32 4.34 15.64 4 17 C2.35 17 0.7 17 -1 17 C-0.690625 16.278125 -0.38125 15.55625 -0.0625 14.8125 C2.09249305 9.28606357 2.09249305 9.28606357 0.5625 3.6875 C0.046875 2.800625 -0.46875 1.91375 -1 1 C-0.67 0.67 -0.34 0.34 0 0 Z " fill="#FDFEFC" transform="translate(87,62)"/>
<path d="M0 0 C3.28212246 0.43761633 4.84832931 1.52557871 7 4 C7.66 2.68 8.32 1.36 9 0 C10.32 0 11.64 0 13 0 C12.5838117 2.9133181 12.08471884 4.86586184 10.5 7.375 C8.67162324 10.57465934 8.3567012 13.3616478 8 17 C6.68 17 5.36 17 4 17 C3.89042969 16.34773438 3.78085937 15.69546875 3.66796875 15.0234375 C2.73491038 9.8802377 1.65215917 5.58100221 -1 1 C-0.67 0.67 -0.34 0.34 0 0 Z " fill="#FBFDFD" transform="translate(21,62)"/>
<path d="M0 0 C0.33 0.99 0.66 1.98 1 3 C0.360625 3.61875 -0.27875 4.2375 -0.9375 4.875 C-3.03883584 6.82597612 -3.03883584 6.82597612 -4 9 C-4.99 9 -5.98 9 -7 9 C-7 14.28 -7 19.56 -7 25 C-7.66 25 -8.32 25 -9 25 C-10.38026906 11.11210762 -10.38026906 11.11210762 -6.99609375 5.93359375 C-4.76246614 3.75589422 -2.53693911 1.81209937 0 0 Z " fill="#D08E32" transform="translate(58,27)"/>
<path d="M0 0 C0 7.26 0 14.52 0 22 C-0.33 22 -0.66 22 -1 22 C-1.33 16.06 -1.66 10.12 -2 4 C-3.65 5.65 -5.3 7.3 -7 9 C-8.33333333 10.33333333 -9.66666667 11.66666667 -11 13 C-11.66 12.67 -12.32 12.34 -13 12 C-2.89320388 0 -2.89320388 0 0 0 Z " fill="#DDDDDD" transform="translate(50,0)"/>
<path d="M0 0 C1.32 0.66 2.64 1.32 4 2 C3.01 2.33 2.02 2.66 1 3 C0.566875 4.2375 0.566875 4.2375 0.125 5.5 C-0.24625 6.325 -0.6175 7.15 -1 8 C-2.66500443 8.34153937 -4.33178677 8.67449498 -6 9 C-7.84434349 11.46115547 -7.84434349 11.46115547 -9 14 C-10.32 13.67 -11.64 13.34 -13 13 C-8.71 8.71 -4.42 4.42 0 0 Z " fill="#DA983D" transform="translate(72,13)"/>
<path d="M0 0 C1.485 0.99 1.485 0.99 3 2 C3.40843923 4.71203652 3.13336867 7.2437142 3 10 C1.68 10 0.36 10 -1 10 C-1.125 2.25 -1.125 2.25 0 0 Z " fill="#FCFDFD" transform="translate(16,69)"/>
<path d="M0 0 C1.32 0.66 2.64 1.32 4 2 C3.01 2.33 2.02 2.66 1 3 C-0.21869929 5.50447516 -0.21869929 5.50447516 -1 8 C-1.99 7.34 -2.98 6.68 -4 6 C-2.68 4.02 -1.36 2.04 0 0 Z " fill="#E4992C" transform="translate(72,13)"/>
<path d="M0 0 C1.98 0 3.96 0 6 0 C4.71937515 1.7074998 3.38232443 3.37373596 2 5 C1.34 5 0.68 5 0 5 C0 3.35 0 1.7 0 0 Z " fill="#E4A64A" transform="translate(49,52)"/>
<path d="M0 0 C1.14926266 0.95421808 2.29430541 1.91352045 3.4375 2.875 C4.07558594 3.40867187 4.71367188 3.94234375 5.37109375 4.4921875 C7 6 7 6 8 8 C7.1646875 7.566875 7.1646875 7.566875 6.3125 7.125 C3.91505355 5.9586747 1.48403061 4.9660119 -1 4 C-0.67 2.68 -0.34 1.36 0 0 Z " fill="#D9993B" transform="translate(76,16)"/>
<path d="M0 0 C0.99 0.33 1.98 0.66 3 1 C1.35 2.98 -0.3 4.96 -2 7 C-2.66 6.01 -3.32 5.02 -4 4 C-3.34 4 -2.68 4 -2 4 C-1.34 2.68 -0.68 1.36 0 0 Z " fill="#E69937" transform="translate(61,42)"/>
</svg>
