<?xml version="1.0" encoding="UTF-8"?>
<svg version="1.1" xmlns="http://www.w3.org/2000/svg" width="32" height="32">
<path d="M0 0 C1.65 0.33 3.3 0.66 5 1 C5 3.64 5 6.28 5 9 C5.86625 8.01 5.86625 8.01 6.75 7 C9 5 9 5 13 5 C13.33 3.35 13.66 1.7 14 0 C15.65 0 17.3 0 19 0 C19 7.59 19 15.18 19 23 C15.76524552 21.38262276 14.29427979 20.52370777 12 18 C9.39619281 19.11591737 7.93900464 20.06671367 6 22.1875 C5.01 23.0846875 5.01 23.0846875 4 24 C1.75 23.75 1.75 23.75 0 23 C0 20.36 0 17.72 0 15 C-0.5775 15.66 -1.155 16.32 -1.75 17 C-4 19 -4 19 -8 19 C-8.33 20.65 -8.66 22.3 -9 24 C-10.32 24 -11.64 24 -13 24 C-13 17.07 -13 10.14 -13 3 C-9 5 -9 5 -6 7 C-4.02 4.69 -2.04 2.38 0 0 Z " fill="#F3AA4D" transform="translate(13,4)"/>
<path d="M0 0 C1.65 0.33 3.3 0.66 5 1 C5.1532552 5.67428347 5.02984495 9.524753 2.29296875 13.4453125 C0.26995207 15.53964146 -1.57282726 17.38788898 -4 19 C-5.32 19 -6.64 19 -8 19 C-8.33 20.65 -8.66 22.3 -9 24 C-10.32 24 -11.64 24 -13 24 C-13 17.07 -13 10.14 -13 3 C-9 5 -9 5 -6 7 C-4.02 4.69 -2.04 2.38 0 0 Z " fill="#11181F" transform="translate(13,4)"/>
</svg>
